<mxfile host="app.diagrams.net" modified="2023-06-30T16:39:34.110Z" agent="Mozilla/5.0 (Windows NT 10.0; Win64; x64) AppleWebKit/537.36 (KHTML, like Gecko) Chrome/109.0.0.0 Safari/537.36" etag="NhXeTFFM09OBIDhxE0Wg" version="21.5.2" type="device">
  <diagram id="6rH4IWwZVMCrdrmhVlo0" name="Pagina-1">
    <mxGraphModel dx="2261" dy="-373" grid="1" gridSize="10" guides="1" tooltips="1" connect="1" arrows="1" fold="1" page="1" pageScale="1" pageWidth="827" pageHeight="1169" math="0" shadow="0">
      <root>
        <mxCell id="0" />
        <mxCell id="1" parent="0" />
        <mxCell id="Fh8B79w4oSR6TOG3ICrI-120" value="" style="points=[[0.25,0,0],[0.5,0,0],[0.75,0,0],[1,0.25,0],[1,0.5,0],[1,0.75,0],[0.75,1,0],[0.5,1,0],[0.25,1,0],[0,0.75,0],[0,0.5,0],[0,0.25,0]];rounded=1;arcSize=10;dashed=1;strokeColor=#000000;fillColor=none;gradientColor=none;dashPattern=8 3 1 3;strokeWidth=2;whiteSpace=wrap;html=1;" parent="1" vertex="1">
          <mxGeometry x="-40" y="1900" width="1240" height="340" as="geometry" />
        </mxCell>
        <mxCell id="Fh8B79w4oSR6TOG3ICrI-73" value="" style="points=[[0.25,0,0],[0.5,0,0],[0.75,0,0],[1,0.25,0],[1,0.5,0],[1,0.75,0],[0.75,1,0],[0.5,1,0],[0.25,1,0],[0,0.75,0],[0,0.5,0],[0,0.25,0]];rounded=1;arcSize=10;dashed=1;strokeColor=#000000;fillColor=none;gradientColor=none;dashPattern=8 3 1 3;strokeWidth=2;whiteSpace=wrap;html=1;" parent="1" vertex="1">
          <mxGeometry x="-82" y="1180" width="1282" height="550" as="geometry" />
        </mxCell>
        <mxCell id="Fh8B79w4oSR6TOG3ICrI-35" value="" style="points=[[0.25,0,0],[0.5,0,0],[0.75,0,0],[1,0.25,0],[1,0.5,0],[1,0.75,0],[0.75,1,0],[0.5,1,0],[0.25,1,0],[0,0.75,0],[0,0.5,0],[0,0.25,0]];shape=mxgraph.bpmn.task;arcSize=10;taskMarker=abstract;outline=none;symbol=general;bpmnShapeType=subprocess;isLoopSub=0;verticalAlign=top;align=left;spacingLeft=5;html=1;whiteSpace=wrap;" parent="1" vertex="1">
          <mxGeometry x="-22.5" y="1200" width="450" height="245" as="geometry" />
        </mxCell>
        <mxCell id="Fh8B79w4oSR6TOG3ICrI-8" value="" style="points=[[0.145,0.145,0],[0.5,0,0],[0.855,0.145,0],[1,0.5,0],[0.855,0.855,0],[0.5,1,0],[0.145,0.855,0],[0,0.5,0]];shape=mxgraph.bpmn.event;html=1;verticalLabelPosition=bottom;labelBackgroundColor=#ffffff;verticalAlign=top;align=center;perimeter=ellipsePerimeter;outlineConnect=0;aspect=fixed;outline=standard;symbol=general;" parent="1" vertex="1">
          <mxGeometry x="-560" y="1335" width="50" height="50" as="geometry" />
        </mxCell>
        <mxCell id="Fh8B79w4oSR6TOG3ICrI-14" value="" style="edgeStyle=orthogonalEdgeStyle;rounded=0;orthogonalLoop=1;jettySize=auto;html=1;" parent="1" source="Fh8B79w4oSR6TOG3ICrI-10" target="8N1oES5niO7e8uJTmVOb-4" edge="1">
          <mxGeometry relative="1" as="geometry">
            <mxPoint x="-172.5" y="1865" as="targetPoint" />
          </mxGeometry>
        </mxCell>
        <mxCell id="Fh8B79w4oSR6TOG3ICrI-10" value="Get first/next token block" style="points=[[0.25,0,0],[0.5,0,0],[0.75,0,0],[1,0.25,0],[1,0.5,0],[1,0.75,0],[0.75,1,0],[0.5,1,0],[0.25,1,0],[0,0.75,0],[0,0.5,0],[0,0.25,0]];shape=mxgraph.bpmn.task;whiteSpace=wrap;rectStyle=rounded;size=10;html=1;container=1;expand=0;collapsible=0;taskMarker=abstract;" parent="1" vertex="1">
          <mxGeometry x="-595" y="1425" width="120" height="80" as="geometry" />
        </mxCell>
        <mxCell id="Fh8B79w4oSR6TOG3ICrI-11" value="" style="edgeStyle=elbowEdgeStyle;fontSize=12;html=1;endArrow=blockThin;endFill=1;rounded=0;" parent="1" source="Fh8B79w4oSR6TOG3ICrI-8" target="Fh8B79w4oSR6TOG3ICrI-10" edge="1">
          <mxGeometry width="160" relative="1" as="geometry">
            <mxPoint x="-542.5" y="1565" as="sourcePoint" />
            <mxPoint x="-382.5" y="1565" as="targetPoint" />
          </mxGeometry>
        </mxCell>
        <mxCell id="Fh8B79w4oSR6TOG3ICrI-12" value="Parse single language" style="text;html=1;align=center;verticalAlign=middle;resizable=0;points=[];autosize=1;strokeColor=none;fillColor=none;" parent="1" vertex="1">
          <mxGeometry x="-600" y="1300" width="140" height="30" as="geometry" />
        </mxCell>
        <mxCell id="Fh8B79w4oSR6TOG3ICrI-15" value="Check if block is usable for all active constructs" style="points=[[0.25,0,0],[0.5,0,0],[0.75,0,0],[1,0.25,0],[1,0.5,0],[1,0.75,0],[0.75,1,0],[0.5,1,0],[0.25,1,0],[0,0.75,0],[0,0.5,0],[0,0.25,0]];shape=mxgraph.bpmn.task;whiteSpace=wrap;rectStyle=rounded;size=10;html=1;container=1;expand=0;collapsible=0;taskMarker=abstract;isLoopStandard=1;" parent="1" vertex="1">
          <mxGeometry x="142.5" y="1545" width="120" height="80" as="geometry" />
        </mxCell>
        <mxCell id="Fh8B79w4oSR6TOG3ICrI-17" value="" style="points=[[0.145,0.145,0],[0.5,0,0],[0.855,0.145,0],[1,0.5,0],[0.855,0.855,0],[0.5,1,0],[0.145,0.855,0],[0,0.5,0]];shape=mxgraph.bpmn.event;html=1;verticalLabelPosition=bottom;labelBackgroundColor=#ffffff;verticalAlign=top;align=center;perimeter=ellipsePerimeter;outlineConnect=0;aspect=fixed;outline=standard;symbol=general;" parent="1" vertex="1">
          <mxGeometry x="37.5" y="1345" width="50" height="50" as="geometry" />
        </mxCell>
        <mxCell id="Fh8B79w4oSR6TOG3ICrI-19" value="" style="fontSize=12;html=1;endFill=0;startFill=0;endSize=6;startSize=6;dashed=1;dashPattern=1 4;endArrow=none;startArrow=none;rounded=0;elbow=vertical;strokeWidth=3;" parent="1" source="Fh8B79w4oSR6TOG3ICrI-15" target="Fh8B79w4oSR6TOG3ICrI-35" edge="1">
          <mxGeometry width="160" relative="1" as="geometry">
            <mxPoint x="190" y="1640" as="sourcePoint" />
            <mxPoint x="-11.298076923077133" y="1450" as="targetPoint" />
          </mxGeometry>
        </mxCell>
        <mxCell id="Fh8B79w4oSR6TOG3ICrI-20" value="Provide found block&lt;br&gt;and the construct to check" style="edgeLabel;html=1;align=center;verticalAlign=middle;resizable=0;points=[];" parent="Fh8B79w4oSR6TOG3ICrI-19" vertex="1" connectable="0">
          <mxGeometry x="0.3391" y="-3" relative="1" as="geometry">
            <mxPoint as="offset" />
          </mxGeometry>
        </mxCell>
        <mxCell id="Fh8B79w4oSR6TOG3ICrI-21" value="Call check function on the construct and provide the block" style="points=[[0.25,0,0],[0.5,0,0],[0.75,0,0],[1,0.25,0],[1,0.5,0],[1,0.75,0],[0.75,1,0],[0.5,1,0],[0.25,1,0],[0,0.75,0],[0,0.5,0],[0,0.25,0]];shape=mxgraph.bpmn.task;whiteSpace=wrap;rectStyle=rounded;size=10;html=1;container=1;expand=0;collapsible=0;taskMarker=abstract;" parent="1" vertex="1">
          <mxGeometry x="157.5" y="1330" width="120" height="80" as="geometry" />
        </mxCell>
        <mxCell id="Fh8B79w4oSR6TOG3ICrI-22" value="" style="edgeStyle=elbowEdgeStyle;fontSize=12;html=1;endArrow=blockThin;endFill=1;rounded=0;" parent="1" source="Fh8B79w4oSR6TOG3ICrI-17" target="Fh8B79w4oSR6TOG3ICrI-21" edge="1">
          <mxGeometry width="160" relative="1" as="geometry">
            <mxPoint x="-255" y="1440" as="sourcePoint" />
            <mxPoint x="-95" y="1440" as="targetPoint" />
          </mxGeometry>
        </mxCell>
        <mxCell id="Fh8B79w4oSR6TOG3ICrI-23" value="" style="points=[[0.145,0.145,0],[0.5,0,0],[0.855,0.145,0],[1,0.5,0],[0.855,0.855,0],[0.5,1,0],[0.145,0.855,0],[0,0.5,0]];shape=mxgraph.bpmn.event;html=1;verticalLabelPosition=bottom;labelBackgroundColor=#ffffff;verticalAlign=top;align=center;perimeter=ellipsePerimeter;outlineConnect=0;aspect=fixed;outline=throwing;symbol=general;" parent="1" vertex="1">
          <mxGeometry x="320" y="1345" width="50" height="50" as="geometry" />
        </mxCell>
        <mxCell id="Fh8B79w4oSR6TOG3ICrI-24" value="" style="edgeStyle=elbowEdgeStyle;fontSize=12;html=1;endArrow=blockThin;endFill=1;rounded=0;" parent="1" source="Fh8B79w4oSR6TOG3ICrI-21" target="Fh8B79w4oSR6TOG3ICrI-23" edge="1">
          <mxGeometry width="160" relative="1" as="geometry">
            <mxPoint x="-285" y="1470" as="sourcePoint" />
            <mxPoint x="-125" y="1470" as="targetPoint" />
          </mxGeometry>
        </mxCell>
        <mxCell id="Fh8B79w4oSR6TOG3ICrI-31" value="Token block" style="shape=mxgraph.bpmn.data;labelPosition=center;verticalLabelPosition=bottom;align=center;verticalAlign=top;size=15;html=1;" parent="1" vertex="1">
          <mxGeometry x="175" y="1210" width="40" height="60" as="geometry" />
        </mxCell>
        <mxCell id="Fh8B79w4oSR6TOG3ICrI-32" value="Construct" style="shape=mxgraph.bpmn.data;labelPosition=center;verticalLabelPosition=bottom;align=center;verticalAlign=top;size=15;html=1;" parent="1" vertex="1">
          <mxGeometry x="267.5" y="1220" width="40" height="60" as="geometry" />
        </mxCell>
        <mxCell id="Fh8B79w4oSR6TOG3ICrI-33" value="" style="fontSize=12;html=1;endFill=0;startFill=0;endSize=6;startSize=6;dashed=1;dashPattern=1 4;endArrow=openThin;startArrow=none;rounded=0;" parent="1" source="Fh8B79w4oSR6TOG3ICrI-31" target="Fh8B79w4oSR6TOG3ICrI-21" edge="1">
          <mxGeometry width="160" relative="1" as="geometry">
            <mxPoint x="-282.5" y="1320" as="sourcePoint" />
            <mxPoint x="-122.5" y="1320" as="targetPoint" />
          </mxGeometry>
        </mxCell>
        <mxCell id="Fh8B79w4oSR6TOG3ICrI-34" value="" style="fontSize=12;html=1;endFill=0;startFill=0;endSize=6;startSize=6;dashed=1;dashPattern=1 4;endArrow=openThin;startArrow=none;rounded=0;" parent="1" source="Fh8B79w4oSR6TOG3ICrI-32" target="Fh8B79w4oSR6TOG3ICrI-21" edge="1">
          <mxGeometry width="160" relative="1" as="geometry">
            <mxPoint x="57.5" y="1279" as="sourcePoint" />
            <mxPoint x="122.5" y="1340" as="targetPoint" />
          </mxGeometry>
        </mxCell>
        <mxCell id="Fh8B79w4oSR6TOG3ICrI-37" value="Add sub-constructs to the active constructs" style="points=[[0.25,0,0],[0.5,0,0],[0.75,0,0],[1,0.25,0],[1,0.5,0],[1,0.75,0],[0.75,1,0],[0.5,1,0],[0.25,1,0],[0,0.75,0],[0,0.5,0],[0,0.25,0]];shape=mxgraph.bpmn.task;whiteSpace=wrap;rectStyle=rounded;size=10;html=1;container=1;expand=0;collapsible=0;taskMarker=abstract;isLoopStandard=1;" parent="1" vertex="1">
          <mxGeometry x="-515" y="1660" width="120" height="80" as="geometry" />
        </mxCell>
        <mxCell id="Fh8B79w4oSR6TOG3ICrI-38" value="" style="edgeStyle=elbowEdgeStyle;fontSize=12;html=1;endArrow=blockThin;endFill=1;rounded=0;" parent="1" source="Fh8B79w4oSR6TOG3ICrI-37" target="Fh8B79w4oSR6TOG3ICrI-71" edge="1">
          <mxGeometry width="160" relative="1" as="geometry">
            <mxPoint x="-462.5" y="2010" as="sourcePoint" />
            <mxPoint x="267.5" y="1840" as="targetPoint" />
          </mxGeometry>
        </mxCell>
        <mxCell id="Fh8B79w4oSR6TOG3ICrI-42" value="Is the block usable&lt;br&gt;in the construct" style="points=[[0.25,0.25,0],[0.5,0,0],[0.75,0.25,0],[1,0.5,0],[0.75,0.75,0],[0.5,1,0],[0.25,0.75,0],[0,0.5,0]];shape=mxgraph.bpmn.gateway2;html=1;verticalLabelPosition=bottom;labelBackgroundColor=#ffffff;verticalAlign=top;align=center;perimeter=rhombusPerimeter;outlineConnect=0;outline=none;symbol=none;gwType=exclusive;" parent="1" vertex="1">
          <mxGeometry x="349" y="1560" width="50" height="50" as="geometry" />
        </mxCell>
        <mxCell id="Fh8B79w4oSR6TOG3ICrI-43" value="" style="edgeStyle=elbowEdgeStyle;fontSize=12;html=1;endArrow=blockThin;endFill=1;rounded=0;" parent="1" source="Fh8B79w4oSR6TOG3ICrI-15" target="Fh8B79w4oSR6TOG3ICrI-42" edge="1">
          <mxGeometry width="160" relative="1" as="geometry">
            <mxPoint x="240" y="1585" as="sourcePoint" />
            <mxPoint x="540" y="1680" as="targetPoint" />
          </mxGeometry>
        </mxCell>
        <mxCell id="Fh8B79w4oSR6TOG3ICrI-45" value="" style="edgeStyle=elbowEdgeStyle;fontSize=12;html=1;endArrow=blockThin;endFill=1;rounded=0;exitX=1;exitY=0.5;exitDx=0;exitDy=0;exitPerimeter=0;entryX=0;entryY=0.5;entryDx=0;entryDy=0;entryPerimeter=0;" parent="1" source="Fh8B79w4oSR6TOG3ICrI-42" target="Fh8B79w4oSR6TOG3ICrI-46" edge="1">
          <mxGeometry width="160" relative="1" as="geometry">
            <mxPoint x="440" y="1590" as="sourcePoint" />
            <mxPoint x="470" y="1500" as="targetPoint" />
          </mxGeometry>
        </mxCell>
        <mxCell id="Fh8B79w4oSR6TOG3ICrI-47" value="Yes" style="edgeLabel;html=1;align=center;verticalAlign=middle;resizable=0;points=[];" parent="Fh8B79w4oSR6TOG3ICrI-45" vertex="1" connectable="0">
          <mxGeometry x="-0.2227" relative="1" as="geometry">
            <mxPoint x="9" y="-9" as="offset" />
          </mxGeometry>
        </mxCell>
        <mxCell id="Fh8B79w4oSR6TOG3ICrI-46" value="Add the block to the constructArgs" style="points=[[0.25,0,0],[0.5,0,0],[0.75,0,0],[1,0.25,0],[1,0.5,0],[1,0.75,0],[0.75,1,0],[0.5,1,0],[0.25,1,0],[0,0.75,0],[0,0.5,0],[0,0.25,0]];shape=mxgraph.bpmn.task;whiteSpace=wrap;rectStyle=rounded;size=10;html=1;container=1;expand=0;collapsible=0;taskMarker=abstract;" parent="1" vertex="1">
          <mxGeometry x="510" y="1485" width="120" height="80" as="geometry" />
        </mxCell>
        <mxCell id="Fh8B79w4oSR6TOG3ICrI-49" value="Check for the use in a later position" style="points=[[0.25,0,0],[0.5,0,0],[0.75,0,0],[1,0.25,0],[1,0.5,0],[1,0.75,0],[0.75,1,0],[0.5,1,0],[0.25,1,0],[0,0.75,0],[0,0.5,0],[0,0.25,0]];shape=mxgraph.bpmn.task;whiteSpace=wrap;rectStyle=rounded;size=10;html=1;container=1;expand=0;collapsible=0;taskMarker=abstract;" parent="1" vertex="1">
          <mxGeometry x="510" y="1605" width="120" height="80" as="geometry" />
        </mxCell>
        <mxCell id="Fh8B79w4oSR6TOG3ICrI-50" value="" style="edgeStyle=elbowEdgeStyle;fontSize=12;html=1;endArrow=blockThin;endFill=1;rounded=0;exitX=1;exitY=0.5;exitDx=0;exitDy=0;exitPerimeter=0;entryX=0;entryY=0.5;entryDx=0;entryDy=0;entryPerimeter=0;" parent="1" source="Fh8B79w4oSR6TOG3ICrI-42" target="Fh8B79w4oSR6TOG3ICrI-49" edge="1">
          <mxGeometry width="160" relative="1" as="geometry">
            <mxPoint x="560" y="1720" as="sourcePoint" />
            <mxPoint x="720" y="1720" as="targetPoint" />
          </mxGeometry>
        </mxCell>
        <mxCell id="Fh8B79w4oSR6TOG3ICrI-51" value="No" style="edgeLabel;html=1;align=center;verticalAlign=middle;resizable=0;points=[];" parent="Fh8B79w4oSR6TOG3ICrI-50" vertex="1" connectable="0">
          <mxGeometry x="0.4894" relative="1" as="geometry">
            <mxPoint x="-2" y="-40" as="offset" />
          </mxGeometry>
        </mxCell>
        <mxCell id="Fh8B79w4oSR6TOG3ICrI-55" value="" style="edgeStyle=elbowEdgeStyle;fontSize=12;html=1;endArrow=blockThin;endFill=1;rounded=0;" parent="1" source="Fh8B79w4oSR6TOG3ICrI-49" target="Fh8B79w4oSR6TOG3ICrI-61" edge="1">
          <mxGeometry width="160" relative="1" as="geometry">
            <mxPoint x="540" y="1760" as="sourcePoint" />
            <mxPoint x="700" y="1645" as="targetPoint" />
          </mxGeometry>
        </mxCell>
        <mxCell id="Fh8B79w4oSR6TOG3ICrI-61" value="Add a warning or error to constructArgs" style="points=[[0.25,0,0],[0.5,0,0],[0.75,0,0],[1,0.25,0],[1,0.5,0],[1,0.75,0],[0.75,1,0],[0.5,1,0],[0.25,1,0],[0,0.75,0],[0,0.5,0],[0,0.25,0]];shape=mxgraph.bpmn.task;whiteSpace=wrap;rectStyle=rounded;size=10;html=1;container=1;expand=0;collapsible=0;taskMarker=abstract;" parent="1" vertex="1">
          <mxGeometry x="720" y="1605" width="120" height="80" as="geometry" />
        </mxCell>
        <mxCell id="Fh8B79w4oSR6TOG3ICrI-62" value="Is it possible&lt;br&gt;to contiue? /&lt;br&gt;Is it a warning?" style="points=[[0.25,0.25,0],[0.5,0,0],[0.75,0.25,0],[1,0.5,0],[0.75,0.75,0],[0.5,1,0],[0.25,0.75,0],[0,0.5,0]];shape=mxgraph.bpmn.gateway2;html=1;verticalLabelPosition=bottom;labelBackgroundColor=#ffffff;verticalAlign=top;align=center;perimeter=rhombusPerimeter;outlineConnect=0;outline=none;symbol=none;gwType=exclusive;" parent="1" vertex="1">
          <mxGeometry x="900" y="1620" width="50" height="50" as="geometry" />
        </mxCell>
        <mxCell id="Fh8B79w4oSR6TOG3ICrI-63" value="" style="edgeStyle=elbowEdgeStyle;fontSize=12;html=1;endArrow=blockThin;endFill=1;rounded=0;" parent="1" source="Fh8B79w4oSR6TOG3ICrI-61" target="Fh8B79w4oSR6TOG3ICrI-62" edge="1">
          <mxGeometry width="160" relative="1" as="geometry">
            <mxPoint x="820" y="1800" as="sourcePoint" />
            <mxPoint x="980" y="1800" as="targetPoint" />
          </mxGeometry>
        </mxCell>
        <mxCell id="Fh8B79w4oSR6TOG3ICrI-64" value="" style="points=[[0.25,0.25,0],[0.5,0,0],[0.75,0.25,0],[1,0.5,0],[0.75,0.75,0],[0.5,1,0],[0.25,0.75,0],[0,0.5,0]];shape=mxgraph.bpmn.gateway2;html=1;verticalLabelPosition=bottom;labelBackgroundColor=#ffffff;verticalAlign=top;align=center;perimeter=rhombusPerimeter;outlineConnect=0;outline=none;symbol=none;gwType=exclusive;" parent="1" vertex="1">
          <mxGeometry x="900" y="1500" width="50" height="50" as="geometry" />
        </mxCell>
        <mxCell id="Fh8B79w4oSR6TOG3ICrI-65" value="" style="edgeStyle=elbowEdgeStyle;fontSize=12;html=1;endArrow=blockThin;endFill=1;rounded=0;elbow=vertical;" parent="1" source="Fh8B79w4oSR6TOG3ICrI-62" target="Fh8B79w4oSR6TOG3ICrI-64" edge="1">
          <mxGeometry width="160" relative="1" as="geometry">
            <mxPoint x="1030" y="1620" as="sourcePoint" />
            <mxPoint x="1190" y="1620" as="targetPoint" />
          </mxGeometry>
        </mxCell>
        <mxCell id="Fh8B79w4oSR6TOG3ICrI-66" value="Yes" style="edgeLabel;html=1;align=center;verticalAlign=middle;resizable=0;points=[];" parent="Fh8B79w4oSR6TOG3ICrI-65" vertex="1" connectable="0">
          <mxGeometry x="-0.4" y="-3" relative="1" as="geometry">
            <mxPoint as="offset" />
          </mxGeometry>
        </mxCell>
        <mxCell id="Fh8B79w4oSR6TOG3ICrI-67" value="" style="edgeStyle=elbowEdgeStyle;fontSize=12;html=1;endArrow=blockThin;endFill=1;rounded=0;" parent="1" source="Fh8B79w4oSR6TOG3ICrI-46" target="Fh8B79w4oSR6TOG3ICrI-64" edge="1">
          <mxGeometry width="160" relative="1" as="geometry">
            <mxPoint x="680" y="1450" as="sourcePoint" />
            <mxPoint x="840" y="1450" as="targetPoint" />
          </mxGeometry>
        </mxCell>
        <mxCell id="Fh8B79w4oSR6TOG3ICrI-69" value="" style="edgeStyle=elbowEdgeStyle;fontSize=12;html=1;endArrow=blockThin;endFill=1;rounded=0;" parent="1" source="Fh8B79w4oSR6TOG3ICrI-62" target="Fh8B79w4oSR6TOG3ICrI-77" edge="1">
          <mxGeometry width="160" relative="1" as="geometry">
            <mxPoint x="1030" y="1740" as="sourcePoint" />
            <mxPoint x="1030" y="1645" as="targetPoint" />
          </mxGeometry>
        </mxCell>
        <mxCell id="Fh8B79w4oSR6TOG3ICrI-70" value="No" style="edgeLabel;html=1;align=center;verticalAlign=middle;resizable=0;points=[];" parent="Fh8B79w4oSR6TOG3ICrI-69" vertex="1" connectable="0">
          <mxGeometry x="-0.45" y="-2" relative="1" as="geometry">
            <mxPoint as="offset" />
          </mxGeometry>
        </mxCell>
        <mxCell id="Fh8B79w4oSR6TOG3ICrI-71" value="Try add token block to all constructArgs" style="points=[[0.25,0,0],[0.5,0,0],[0.75,0,0],[1,0.25,0],[1,0.5,0],[1,0.75,0],[0.75,1,0],[0.5,1,0],[0.25,1,0],[0,0.75,0],[0,0.5,0],[0,0.25,0]];shape=mxgraph.bpmn.task;whiteSpace=wrap;rectStyle=rounded;size=10;html=1;container=1;expand=0;collapsible=0;taskMarker=abstract;isLoopStandard=1;isLoopSub=1;" parent="1" vertex="1">
          <mxGeometry x="-515" y="1780" width="120" height="80" as="geometry" />
        </mxCell>
        <mxCell id="Fh8B79w4oSR6TOG3ICrI-74" value="" style="points=[[0.145,0.145,0],[0.5,0,0],[0.855,0.145,0],[1,0.5,0],[0.855,0.855,0],[0.5,1,0],[0.145,0.855,0],[0,0.5,0]];shape=mxgraph.bpmn.event;html=1;verticalLabelPosition=bottom;labelBackgroundColor=#ffffff;verticalAlign=top;align=center;perimeter=ellipsePerimeter;outlineConnect=0;aspect=fixed;outline=standard;symbol=general;" parent="1" vertex="1">
          <mxGeometry x="10" y="1560" width="50" height="50" as="geometry" />
        </mxCell>
        <mxCell id="Fh8B79w4oSR6TOG3ICrI-75" value="" style="edgeStyle=elbowEdgeStyle;fontSize=12;html=1;endArrow=blockThin;endFill=1;rounded=0;" parent="1" source="Fh8B79w4oSR6TOG3ICrI-74" target="Fh8B79w4oSR6TOG3ICrI-15" edge="1">
          <mxGeometry width="160" relative="1" as="geometry">
            <mxPoint x="-50" y="1510" as="sourcePoint" />
            <mxPoint x="110" y="1510" as="targetPoint" />
          </mxGeometry>
        </mxCell>
        <mxCell id="Fh8B79w4oSR6TOG3ICrI-76" value="" style="edgeStyle=elbowEdgeStyle;fontSize=12;html=1;endFill=0;startFill=0;endSize=6;startSize=6;dashed=1;dashPattern=1 4;endArrow=none;startArrow=none;rounded=0;" parent="1" source="Fh8B79w4oSR6TOG3ICrI-71" target="Fh8B79w4oSR6TOG3ICrI-73" edge="1">
          <mxGeometry width="160" relative="1" as="geometry">
            <mxPoint x="70" y="1770" as="sourcePoint" />
            <mxPoint x="230" y="1770" as="targetPoint" />
          </mxGeometry>
        </mxCell>
        <mxCell id="Fh8B79w4oSR6TOG3ICrI-77" value="Throw error" style="points=[[0.145,0.145,0],[0.5,0,0],[0.855,0.145,0],[1,0.5,0],[0.855,0.855,0],[0.5,1,0],[0.145,0.855,0],[0,0.5,0]];shape=mxgraph.bpmn.event;html=1;verticalLabelPosition=bottom;labelBackgroundColor=#ffffff;verticalAlign=top;align=center;perimeter=ellipsePerimeter;outlineConnect=0;aspect=fixed;outline=throwing;symbol=message;" parent="1" vertex="1">
          <mxGeometry x="1030" y="1620" width="50" height="50" as="geometry" />
        </mxCell>
        <mxCell id="Fh8B79w4oSR6TOG3ICrI-78" value="Return status&lt;br&gt;update" style="points=[[0.145,0.145,0],[0.5,0,0],[0.855,0.145,0],[1,0.5,0],[0.855,0.855,0],[0.5,1,0],[0.145,0.855,0],[0,0.5,0]];shape=mxgraph.bpmn.event;html=1;verticalLabelPosition=bottom;labelBackgroundColor=#ffffff;verticalAlign=top;align=center;perimeter=ellipsePerimeter;outlineConnect=0;aspect=fixed;outline=end;symbol=message;" parent="1" vertex="1">
          <mxGeometry x="1030" y="1500" width="50" height="50" as="geometry" />
        </mxCell>
        <mxCell id="Fh8B79w4oSR6TOG3ICrI-79" value="" style="edgeStyle=elbowEdgeStyle;fontSize=12;html=1;endArrow=blockThin;endFill=1;rounded=0;" parent="1" source="Fh8B79w4oSR6TOG3ICrI-64" target="Fh8B79w4oSR6TOG3ICrI-78" edge="1">
          <mxGeometry width="160" relative="1" as="geometry">
            <mxPoint x="900" y="1760" as="sourcePoint" />
            <mxPoint x="1060" y="1760" as="targetPoint" />
          </mxGeometry>
        </mxCell>
        <mxCell id="Fh8B79w4oSR6TOG3ICrI-82" value="catch error" style="points=[[0.145,0.145,0],[0.5,0,0],[0.855,0.145,0],[1,0.5,0],[0.855,0.855,0],[0.5,1,0],[0.145,0.855,0],[0,0.5,0]];shape=mxgraph.bpmn.event;html=1;verticalLabelPosition=bottom;labelBackgroundColor=#ffffff;verticalAlign=top;align=center;perimeter=ellipsePerimeter;outlineConnect=0;aspect=fixed;outline=catching;symbol=message;" parent="1" vertex="1">
          <mxGeometry x="-640" y="1795" width="50" height="50" as="geometry" />
        </mxCell>
        <mxCell id="Fh8B79w4oSR6TOG3ICrI-83" value="" style="edgeStyle=elbowEdgeStyle;fontSize=12;html=1;endArrow=blockThin;endFill=1;rounded=0;" parent="1" source="Fh8B79w4oSR6TOG3ICrI-71" target="Fh8B79w4oSR6TOG3ICrI-82" edge="1">
          <mxGeometry width="160" relative="1" as="geometry">
            <mxPoint x="210" y="1940" as="sourcePoint" />
            <mxPoint x="370" y="1940" as="targetPoint" />
          </mxGeometry>
        </mxCell>
        <mxCell id="Fh8B79w4oSR6TOG3ICrI-84" value="" style="points=[[0.145,0.145,0],[0.5,0,0],[0.855,0.145,0],[1,0.5,0],[0.855,0.855,0],[0.5,1,0],[0.145,0.855,0],[0,0.5,0]];shape=mxgraph.bpmn.event;html=1;verticalLabelPosition=bottom;labelBackgroundColor=#ffffff;verticalAlign=top;align=center;perimeter=ellipsePerimeter;outlineConnect=0;aspect=fixed;outline=end;symbol=terminate2;" parent="1" vertex="1">
          <mxGeometry x="-645" y="2160" width="50" height="50" as="geometry" />
        </mxCell>
        <mxCell id="Fh8B79w4oSR6TOG3ICrI-86" value="Print warnings and errors" style="points=[[0.25,0,0],[0.5,0,0],[0.75,0,0],[1,0.25,0],[1,0.5,0],[1,0.75,0],[0.75,1,0],[0.5,1,0],[0.25,1,0],[0,0.75,0],[0,0.5,0],[0,0.25,0]];shape=mxgraph.bpmn.task;whiteSpace=wrap;rectStyle=rounded;size=10;html=1;container=1;expand=0;collapsible=0;taskMarker=abstract;" parent="1" vertex="1">
          <mxGeometry x="-675" y="2020" width="120" height="80" as="geometry" />
        </mxCell>
        <mxCell id="Fh8B79w4oSR6TOG3ICrI-88" value="" style="edgeStyle=elbowEdgeStyle;fontSize=12;html=1;endArrow=blockThin;endFill=1;rounded=0;" parent="1" source="Fh8B79w4oSR6TOG3ICrI-86" target="Fh8B79w4oSR6TOG3ICrI-84" edge="1">
          <mxGeometry width="160" relative="1" as="geometry">
            <mxPoint x="-539" y="2155" as="sourcePoint" />
            <mxPoint x="-379" y="2155" as="targetPoint" />
          </mxGeometry>
        </mxCell>
        <mxCell id="Fh8B79w4oSR6TOG3ICrI-91" value="" style="edgeStyle=elbowEdgeStyle;fontSize=12;html=1;endArrow=blockThin;endFill=1;rounded=0;" parent="1" source="Fh8B79w4oSR6TOG3ICrI-71" target="Fh8B79w4oSR6TOG3ICrI-95" edge="1">
          <mxGeometry width="160" relative="1" as="geometry">
            <mxPoint x="470" y="2020" as="sourcePoint" />
            <mxPoint x="-455" y="1930" as="targetPoint" />
            <Array as="points" />
          </mxGeometry>
        </mxCell>
        <mxCell id="Fh8B79w4oSR6TOG3ICrI-95" value="Update active constructArgs" style="points=[[0.25,0,0],[0.5,0,0],[0.75,0,0],[1,0.25,0],[1,0.5,0],[1,0.75,0],[0.75,1,0],[0.5,1,0],[0.25,1,0],[0,0.75,0],[0,0.5,0],[0,0.25,0]];shape=mxgraph.bpmn.task;whiteSpace=wrap;rectStyle=rounded;size=10;html=1;container=1;expand=0;collapsible=0;taskMarker=abstract;isLoopStandard=1;isLoopSub=1;" parent="1" vertex="1">
          <mxGeometry x="-515" y="1930" width="120" height="80" as="geometry" />
        </mxCell>
        <mxCell id="Fh8B79w4oSR6TOG3ICrI-98" value="" style="points=[[0.145,0.145,0],[0.5,0,0],[0.855,0.145,0],[1,0.5,0],[0.855,0.855,0],[0.5,1,0],[0.145,0.855,0],[0,0.5,0]];shape=mxgraph.bpmn.event;html=1;verticalLabelPosition=bottom;labelBackgroundColor=#ffffff;verticalAlign=top;align=center;perimeter=ellipsePerimeter;outlineConnect=0;aspect=fixed;outline=standard;symbol=general;" parent="1" vertex="1">
          <mxGeometry x="10" y="1945" width="50" height="50" as="geometry" />
        </mxCell>
        <mxCell id="Fh8B79w4oSR6TOG3ICrI-99" value="Is the arg&lt;br&gt;complete" style="points=[[0.25,0.25,0],[0.5,0,0],[0.75,0.25,0],[1,0.5,0],[0.75,0.75,0],[0.5,1,0],[0.25,0.75,0],[0,0.5,0]];shape=mxgraph.bpmn.gateway2;html=1;verticalLabelPosition=bottom;labelBackgroundColor=#ffffff;verticalAlign=top;align=center;perimeter=rhombusPerimeter;outlineConnect=0;outline=none;symbol=none;gwType=exclusive;" parent="1" vertex="1">
          <mxGeometry x="130" y="1945" width="50" height="50" as="geometry" />
        </mxCell>
        <mxCell id="Fh8B79w4oSR6TOG3ICrI-100" value="Can the arg&lt;br&gt;continue" style="points=[[0.25,0.25,0],[0.5,0,0],[0.75,0.25,0],[1,0.5,0],[0.75,0.75,0],[0.5,1,0],[0.25,0.75,0],[0,0.5,0]];shape=mxgraph.bpmn.gateway2;html=1;verticalLabelPosition=bottom;labelBackgroundColor=#ffffff;verticalAlign=top;align=center;perimeter=rhombusPerimeter;outlineConnect=0;outline=none;symbol=none;gwType=exclusive;" parent="1" vertex="1">
          <mxGeometry x="308" y="1945" width="50" height="50" as="geometry" />
        </mxCell>
        <mxCell id="Fh8B79w4oSR6TOG3ICrI-101" value="" style="edgeStyle=elbowEdgeStyle;fontSize=12;html=1;endArrow=blockThin;endFill=1;rounded=0;" parent="1" source="Fh8B79w4oSR6TOG3ICrI-98" target="Fh8B79w4oSR6TOG3ICrI-99" edge="1">
          <mxGeometry width="160" relative="1" as="geometry">
            <mxPoint x="-10" y="2060" as="sourcePoint" />
            <mxPoint x="150" y="2060" as="targetPoint" />
          </mxGeometry>
        </mxCell>
        <mxCell id="Fh8B79w4oSR6TOG3ICrI-102" value="" style="edgeStyle=elbowEdgeStyle;fontSize=12;html=1;endArrow=blockThin;endFill=1;rounded=0;" parent="1" source="Fh8B79w4oSR6TOG3ICrI-99" target="Fh8B79w4oSR6TOG3ICrI-100" edge="1">
          <mxGeometry width="160" relative="1" as="geometry">
            <mxPoint x="180" y="2100" as="sourcePoint" />
            <mxPoint x="340" y="2100" as="targetPoint" />
          </mxGeometry>
        </mxCell>
        <mxCell id="Fh8B79w4oSR6TOG3ICrI-103" value="yes" style="edgeLabel;html=1;align=center;verticalAlign=middle;resizable=0;points=[];" parent="Fh8B79w4oSR6TOG3ICrI-102" vertex="1" connectable="0">
          <mxGeometry x="-0.4062" relative="1" as="geometry">
            <mxPoint x="32" as="offset" />
          </mxGeometry>
        </mxCell>
        <mxCell id="Fh8B79w4oSR6TOG3ICrI-105" value="Make copy that is complete in memory" style="points=[[0.25,0,0],[0.5,0,0],[0.75,0,0],[1,0.25,0],[1,0.5,0],[1,0.75,0],[0.75,1,0],[0.5,1,0],[0.25,1,0],[0,0.75,0],[0,0.5,0],[0,0.25,0]];shape=mxgraph.bpmn.task;whiteSpace=wrap;rectStyle=rounded;size=10;html=1;container=1;expand=0;collapsible=0;taskMarker=abstract;" parent="1" vertex="1">
          <mxGeometry x="464" y="1930" width="120" height="80" as="geometry" />
        </mxCell>
        <mxCell id="Fh8B79w4oSR6TOG3ICrI-106" value="Set ConstructArg to complete" style="points=[[0.25,0,0],[0.5,0,0],[0.75,0,0],[1,0.25,0],[1,0.5,0],[1,0.75,0],[0.75,1,0],[0.5,1,0],[0.25,1,0],[0,0.75,0],[0,0.5,0],[0,0.25,0]];shape=mxgraph.bpmn.task;whiteSpace=wrap;rectStyle=rounded;size=10;html=1;container=1;expand=0;collapsible=0;taskMarker=abstract;" parent="1" vertex="1">
          <mxGeometry x="464" y="2040" width="120" height="80" as="geometry" />
        </mxCell>
        <mxCell id="Fh8B79w4oSR6TOG3ICrI-107" value="" style="edgeStyle=elbowEdgeStyle;fontSize=12;html=1;endArrow=blockThin;endFill=1;rounded=0;" parent="1" source="Fh8B79w4oSR6TOG3ICrI-100" target="Fh8B79w4oSR6TOG3ICrI-106" edge="1">
          <mxGeometry width="160" relative="1" as="geometry">
            <mxPoint x="270" y="2150" as="sourcePoint" />
            <mxPoint x="430" y="2150" as="targetPoint" />
          </mxGeometry>
        </mxCell>
        <mxCell id="Fh8B79w4oSR6TOG3ICrI-108" value="No" style="edgeLabel;html=1;align=center;verticalAlign=middle;resizable=0;points=[];" parent="Fh8B79w4oSR6TOG3ICrI-107" vertex="1" connectable="0">
          <mxGeometry x="-0.213" y="1" relative="1" as="geometry">
            <mxPoint as="offset" />
          </mxGeometry>
        </mxCell>
        <mxCell id="Fh8B79w4oSR6TOG3ICrI-109" value="" style="edgeStyle=elbowEdgeStyle;fontSize=12;html=1;endArrow=blockThin;endFill=1;rounded=0;" parent="1" source="Fh8B79w4oSR6TOG3ICrI-100" target="Fh8B79w4oSR6TOG3ICrI-105" edge="1">
          <mxGeometry width="160" relative="1" as="geometry">
            <mxPoint x="220" y="2140" as="sourcePoint" />
            <mxPoint x="380" y="2140" as="targetPoint" />
          </mxGeometry>
        </mxCell>
        <mxCell id="Fh8B79w4oSR6TOG3ICrI-110" value="Yes" style="edgeLabel;html=1;align=center;verticalAlign=middle;resizable=0;points=[];" parent="Fh8B79w4oSR6TOG3ICrI-109" vertex="1" connectable="0">
          <mxGeometry x="0.3962" y="1" relative="1" as="geometry">
            <mxPoint as="offset" />
          </mxGeometry>
        </mxCell>
        <mxCell id="Fh8B79w4oSR6TOG3ICrI-111" value="" style="points=[[0.25,0.25,0],[0.5,0,0],[0.75,0.25,0],[1,0.5,0],[0.75,0.75,0],[0.5,1,0],[0.25,0.75,0],[0,0.5,0]];shape=mxgraph.bpmn.gateway2;html=1;verticalLabelPosition=bottom;labelBackgroundColor=#ffffff;verticalAlign=top;align=center;perimeter=rhombusPerimeter;outlineConnect=0;outline=none;symbol=none;gwType=exclusive;" parent="1" vertex="1">
          <mxGeometry x="660" y="1945" width="50" height="50" as="geometry" />
        </mxCell>
        <mxCell id="Fh8B79w4oSR6TOG3ICrI-112" value="" style="points=[[0.25,0.25,0],[0.5,0,0],[0.75,0.25,0],[1,0.5,0],[0.75,0.75,0],[0.5,1,0],[0.25,0.75,0],[0,0.5,0]];shape=mxgraph.bpmn.gateway2;html=1;verticalLabelPosition=bottom;labelBackgroundColor=#ffffff;verticalAlign=top;align=center;perimeter=rhombusPerimeter;outlineConnect=0;outline=none;symbol=none;gwType=exclusive;" parent="1" vertex="1">
          <mxGeometry x="970" y="1945" width="50" height="50" as="geometry" />
        </mxCell>
        <mxCell id="Fh8B79w4oSR6TOG3ICrI-113" value="" style="points=[[0.145,0.145,0],[0.5,0,0],[0.855,0.145,0],[1,0.5,0],[0.855,0.855,0],[0.5,1,0],[0.145,0.855,0],[0,0.5,0]];shape=mxgraph.bpmn.event;html=1;verticalLabelPosition=bottom;labelBackgroundColor=#ffffff;verticalAlign=top;align=center;perimeter=ellipsePerimeter;outlineConnect=0;aspect=fixed;outline=end;symbol=terminate2;" parent="1" vertex="1">
          <mxGeometry x="1110" y="1945" width="50" height="50" as="geometry" />
        </mxCell>
        <mxCell id="Fh8B79w4oSR6TOG3ICrI-114" value="" style="edgeStyle=elbowEdgeStyle;fontSize=12;html=1;endArrow=blockThin;endFill=1;rounded=0;" parent="1" source="Fh8B79w4oSR6TOG3ICrI-105" target="Fh8B79w4oSR6TOG3ICrI-111" edge="1">
          <mxGeometry width="160" relative="1" as="geometry">
            <mxPoint x="690" y="2050" as="sourcePoint" />
            <mxPoint x="850" y="2050" as="targetPoint" />
          </mxGeometry>
        </mxCell>
        <mxCell id="Fh8B79w4oSR6TOG3ICrI-115" value="" style="edgeStyle=elbowEdgeStyle;fontSize=12;html=1;endArrow=blockThin;endFill=1;rounded=0;" parent="1" source="Fh8B79w4oSR6TOG3ICrI-106" target="Fh8B79w4oSR6TOG3ICrI-111" edge="1">
          <mxGeometry width="160" relative="1" as="geometry">
            <mxPoint x="670" y="2070" as="sourcePoint" />
            <mxPoint x="830" y="2070" as="targetPoint" />
          </mxGeometry>
        </mxCell>
        <mxCell id="Fh8B79w4oSR6TOG3ICrI-116" value="" style="edgeStyle=elbowEdgeStyle;fontSize=12;html=1;endArrow=blockThin;endFill=1;rounded=0;" parent="1" source="Fh8B79w4oSR6TOG3ICrI-111" target="8N1oES5niO7e8uJTmVOb-1" edge="1">
          <mxGeometry width="160" relative="1" as="geometry">
            <mxPoint x="940" y="2030" as="sourcePoint" />
            <mxPoint x="1100" y="2030" as="targetPoint" />
          </mxGeometry>
        </mxCell>
        <mxCell id="Fh8B79w4oSR6TOG3ICrI-117" value="" style="edgeStyle=elbowEdgeStyle;fontSize=12;html=1;endArrow=blockThin;endFill=1;rounded=0;" parent="1" source="Fh8B79w4oSR6TOG3ICrI-112" target="Fh8B79w4oSR6TOG3ICrI-113" edge="1">
          <mxGeometry width="160" relative="1" as="geometry">
            <mxPoint x="1070" y="2050" as="sourcePoint" />
            <mxPoint x="1230" y="2050" as="targetPoint" />
          </mxGeometry>
        </mxCell>
        <mxCell id="Fh8B79w4oSR6TOG3ICrI-118" value="" style="edgeStyle=orthogonalEdgeStyle;fontSize=12;html=1;endArrow=blockThin;endFill=1;rounded=0;" parent="1" source="Fh8B79w4oSR6TOG3ICrI-99" target="Fh8B79w4oSR6TOG3ICrI-112" edge="1">
          <mxGeometry width="160" relative="1" as="geometry">
            <mxPoint x="140" y="2150" as="sourcePoint" />
            <mxPoint x="360" y="2210" as="targetPoint" />
            <Array as="points">
              <mxPoint x="210" y="1970" />
              <mxPoint x="210" y="2180" />
              <mxPoint x="995" y="2180" />
            </Array>
          </mxGeometry>
        </mxCell>
        <mxCell id="Fh8B79w4oSR6TOG3ICrI-119" value="No" style="edgeLabel;html=1;align=center;verticalAlign=middle;resizable=0;points=[];" parent="Fh8B79w4oSR6TOG3ICrI-118" vertex="1" connectable="0">
          <mxGeometry x="-0.8731" y="2" relative="1" as="geometry">
            <mxPoint as="offset" />
          </mxGeometry>
        </mxCell>
        <mxCell id="Fh8B79w4oSR6TOG3ICrI-121" value="" style="edgeStyle=elbowEdgeStyle;fontSize=12;html=1;endFill=0;startFill=0;endSize=6;startSize=6;dashed=1;dashPattern=1 4;endArrow=none;startArrow=none;rounded=0;" parent="1" source="Fh8B79w4oSR6TOG3ICrI-95" target="Fh8B79w4oSR6TOG3ICrI-120" edge="1">
          <mxGeometry width="160" relative="1" as="geometry">
            <mxPoint x="-300" y="1980" as="sourcePoint" />
            <mxPoint x="-140" y="1980" as="targetPoint" />
          </mxGeometry>
        </mxCell>
        <mxCell id="Fh8B79w4oSR6TOG3ICrI-122" value="Can it continue" style="points=[[0.25,0.25,0],[0.5,0,0],[0.75,0.25,0],[1,0.5,0],[0.75,0.75,0],[0.5,1,0],[0.25,0.75,0],[0,0.5,0]];shape=mxgraph.bpmn.gateway2;html=1;verticalLabelPosition=bottom;labelBackgroundColor=#ffffff;verticalAlign=top;align=center;perimeter=rhombusPerimeter;outlineConnect=0;outline=none;symbol=none;gwType=exclusive;" parent="1" vertex="1">
          <mxGeometry x="-640" y="1910" width="50" height="50" as="geometry" />
        </mxCell>
        <mxCell id="Fh8B79w4oSR6TOG3ICrI-123" value="" style="edgeStyle=elbowEdgeStyle;fontSize=12;html=1;endArrow=blockThin;endFill=1;rounded=0;" parent="1" source="Fh8B79w4oSR6TOG3ICrI-82" target="Fh8B79w4oSR6TOG3ICrI-122" edge="1">
          <mxGeometry width="160" relative="1" as="geometry">
            <mxPoint x="-780" y="1900" as="sourcePoint" />
            <mxPoint x="-620" y="1900" as="targetPoint" />
          </mxGeometry>
        </mxCell>
        <mxCell id="Fh8B79w4oSR6TOG3ICrI-124" value="" style="edgeStyle=elbowEdgeStyle;fontSize=12;html=1;endArrow=blockThin;endFill=1;rounded=0;elbow=vertical;" parent="1" source="Fh8B79w4oSR6TOG3ICrI-122" target="Fh8B79w4oSR6TOG3ICrI-86" edge="1">
          <mxGeometry width="160" relative="1" as="geometry">
            <mxPoint x="-790" y="2000" as="sourcePoint" />
            <mxPoint x="-630" y="2000" as="targetPoint" />
          </mxGeometry>
        </mxCell>
        <mxCell id="Fh8B79w4oSR6TOG3ICrI-125" value="No" style="edgeLabel;html=1;align=center;verticalAlign=middle;resizable=0;points=[];" parent="Fh8B79w4oSR6TOG3ICrI-124" vertex="1" connectable="0">
          <mxGeometry x="0.4" y="3" relative="1" as="geometry">
            <mxPoint as="offset" />
          </mxGeometry>
        </mxCell>
        <mxCell id="Fh8B79w4oSR6TOG3ICrI-126" value="" style="edgeStyle=elbowEdgeStyle;fontSize=12;html=1;endArrow=blockThin;endFill=1;rounded=0;entryX=0;entryY=0.75;entryDx=0;entryDy=0;entryPerimeter=0;" parent="1" source="Fh8B79w4oSR6TOG3ICrI-122" target="Fh8B79w4oSR6TOG3ICrI-71" edge="1">
          <mxGeometry width="160" relative="1" as="geometry">
            <mxPoint x="-530" y="1890" as="sourcePoint" />
            <mxPoint x="-370" y="1890" as="targetPoint" />
          </mxGeometry>
        </mxCell>
        <mxCell id="Fh8B79w4oSR6TOG3ICrI-127" value="Yes" style="edgeLabel;html=1;align=center;verticalAlign=middle;resizable=0;points=[];" parent="Fh8B79w4oSR6TOG3ICrI-126" vertex="1" connectable="0">
          <mxGeometry x="-0.6471" relative="1" as="geometry">
            <mxPoint as="offset" />
          </mxGeometry>
        </mxCell>
        <mxCell id="8N1oES5niO7e8uJTmVOb-1" value="Update parent" style="points=[[0.25,0,0],[0.5,0,0],[0.75,0,0],[1,0.25,0],[1,0.5,0],[1,0.75,0],[0.75,1,0],[0.5,1,0],[0.25,1,0],[0,0.75,0],[0,0.5,0],[0,0.25,0]];shape=mxgraph.bpmn.task;whiteSpace=wrap;rectStyle=rounded;size=10;html=1;container=1;expand=0;collapsible=0;taskMarker=abstract;" vertex="1" parent="1">
          <mxGeometry x="780" y="1930" width="120" height="80" as="geometry" />
        </mxCell>
        <mxCell id="8N1oES5niO7e8uJTmVOb-2" value="" style="edgeStyle=elbowEdgeStyle;fontSize=12;html=1;endArrow=blockThin;endFill=1;rounded=0;" edge="1" parent="1" source="8N1oES5niO7e8uJTmVOb-1" target="Fh8B79w4oSR6TOG3ICrI-112">
          <mxGeometry width="160" relative="1" as="geometry">
            <mxPoint x="510" y="1850" as="sourcePoint" />
            <mxPoint x="670" y="1850" as="targetPoint" />
            <Array as="points">
              <mxPoint x="930" y="1970" />
            </Array>
          </mxGeometry>
        </mxCell>
        <mxCell id="8N1oES5niO7e8uJTmVOb-3" value="" style="edgeStyle=orthogonalEdgeStyle;fontSize=12;html=1;endArrow=blockThin;endFill=1;rounded=0;" edge="1" parent="1" source="Fh8B79w4oSR6TOG3ICrI-95" target="Fh8B79w4oSR6TOG3ICrI-10">
          <mxGeometry width="160" relative="1" as="geometry">
            <mxPoint x="-180" y="1880" as="sourcePoint" />
            <mxPoint x="-20" y="1880" as="targetPoint" />
            <Array as="points">
              <mxPoint x="-350" y="1970" />
              <mxPoint x="-350" y="1465" />
            </Array>
          </mxGeometry>
        </mxCell>
        <mxCell id="8N1oES5niO7e8uJTmVOb-4" value="Token block exists?" style="points=[[0.25,0.25,0],[0.5,0,0],[0.75,0.25,0],[1,0.5,0],[0.75,0.75,0],[0.5,1,0],[0.25,0.75,0],[0,0.5,0]];shape=mxgraph.bpmn.gateway2;html=1;verticalLabelPosition=bottom;labelBackgroundColor=#ffffff;verticalAlign=top;align=center;perimeter=rhombusPerimeter;outlineConnect=0;outline=none;symbol=none;gwType=exclusive;" vertex="1" parent="1">
          <mxGeometry x="-560" y="1555" width="50" height="50" as="geometry" />
        </mxCell>
        <mxCell id="8N1oES5niO7e8uJTmVOb-5" value="" style="edgeStyle=orthogonalEdgeStyle;fontSize=12;html=1;endArrow=blockThin;endFill=1;rounded=0;entryX=0.5;entryY=0;entryDx=0;entryDy=0;entryPerimeter=0;exitX=1;exitY=0.5;exitDx=0;exitDy=0;exitPerimeter=0;" edge="1" parent="1" source="8N1oES5niO7e8uJTmVOb-4" target="Fh8B79w4oSR6TOG3ICrI-37">
          <mxGeometry width="160" relative="1" as="geometry">
            <mxPoint x="-350" y="1390" as="sourcePoint" />
            <mxPoint x="-190" y="1390" as="targetPoint" />
          </mxGeometry>
        </mxCell>
        <mxCell id="8N1oES5niO7e8uJTmVOb-6" value="Yes" style="edgeLabel;html=1;align=center;verticalAlign=middle;resizable=0;points=[];" vertex="1" connectable="0" parent="8N1oES5niO7e8uJTmVOb-5">
          <mxGeometry x="-0.3333" y="1" relative="1" as="geometry">
            <mxPoint x="-10" y="1" as="offset" />
          </mxGeometry>
        </mxCell>
        <mxCell id="8N1oES5niO7e8uJTmVOb-7" value="" style="points=[[0.145,0.145,0],[0.5,0,0],[0.855,0.145,0],[1,0.5,0],[0.855,0.855,0],[0.5,1,0],[0.145,0.855,0],[0,0.5,0]];shape=mxgraph.bpmn.event;html=1;verticalLabelPosition=bottom;labelBackgroundColor=#ffffff;verticalAlign=top;align=center;perimeter=ellipsePerimeter;outlineConnect=0;aspect=fixed;outline=end;symbol=terminate2;" vertex="1" parent="1">
          <mxGeometry x="-660" y="1675" width="50" height="50" as="geometry" />
        </mxCell>
        <mxCell id="8N1oES5niO7e8uJTmVOb-8" value="" style="edgeStyle=orthogonalEdgeStyle;fontSize=12;html=1;endArrow=blockThin;endFill=1;rounded=0;exitX=0;exitY=0.5;exitDx=0;exitDy=0;exitPerimeter=0;entryX=0.5;entryY=0;entryDx=0;entryDy=0;entryPerimeter=0;" edge="1" parent="1" source="8N1oES5niO7e8uJTmVOb-4" target="8N1oES5niO7e8uJTmVOb-7">
          <mxGeometry width="160" relative="1" as="geometry">
            <mxPoint x="-780" y="1530" as="sourcePoint" />
            <mxPoint x="-620" y="1530" as="targetPoint" />
          </mxGeometry>
        </mxCell>
        <mxCell id="8N1oES5niO7e8uJTmVOb-9" value="No" style="edgeLabel;html=1;align=center;verticalAlign=middle;resizable=0;points=[];" vertex="1" connectable="0" parent="8N1oES5niO7e8uJTmVOb-8">
          <mxGeometry x="-0.3529" y="-2" relative="1" as="geometry">
            <mxPoint as="offset" />
          </mxGeometry>
        </mxCell>
      </root>
    </mxGraphModel>
  </diagram>
</mxfile>
